<?xml version="1.0" encoding="UTF-8" standalone="no"?>
<!-- Created with Inkscape (http://www.inkscape.org/) -->

<svg
   xmlns:dc="http://purl.org/dc/elements/1.1/"
   xmlns:cc="http://creativecommons.org/ns#"
   xmlns:rdf="http://www.w3.org/1999/02/22-rdf-syntax-ns#"
   xmlns:svg="http://www.w3.org/2000/svg"
   xmlns="http://www.w3.org/2000/svg"
   xmlns:sodipodi="http://sodipodi.sourceforge.net/DTD/sodipodi-0.dtd"
   xmlns:inkscape="http://www.inkscape.org/namespaces/inkscape"
   id="svg2"
   version="1.1"
   inkscape:version="0.48.2 r9819"
   sodipodi:docname="kenJinks100pct.svg"
style="position:fixed; top:0; left:0; z-index:9;"
    height="100%"
    width="100%"
>
  <defs
     id="defs4" />
  <sodipodi:namedview
     id="base"
     pagecolor="#ffffff"
     bordercolor="#666666"
     borderopacity="1.0"
     inkscape:pageopacity="0.0"
     inkscape:pageshadow="2"
     inkscape:zoom="2.8284271"
     inkscape:cx="117.96094"
     inkscape:cy="28.317087"
     inkscape:document-units="px"
     inkscape:current-layer="svg2"
     showgrid="false"
     showguides="true"
     inkscape:guide-bbox="true"
     inkscape:window-width="1024"
     inkscape:window-height="746"
     inkscape:window-x="180"
     inkscape:window-y="-8"
     inkscape:window-maximized="1"
     fit-margin-top="0"
     fit-margin-left="0"
     fit-margin-right="0"
     fit-margin-bottom="0">
    <sodipodi:guide
       orientation="0,1"
       position="-50.59375,0.21874884"
       id="guide3046" />
  </sodipodi:namedview>
  <metadata
     id="metadata7">
    <rdf:RDF>
      <cc:Work
         rdf:about="">
        <dc:format>image/svg+xml</dc:format>
        <dc:type
           rdf:resource="http://purl.org/dc/dcmitype/StillImage" />
        <dc:title />
      </cc:Work>
    </rdf:RDF>
  </metadata>
  <g id="KEN_JINKS" opacity="0" onclick="logoClick();">
  <g
     inkscape:label="Layer 1"
     inkscape:groupmode="layer"
     
     transform="translate(-0.59375,-81.747672)"
     >
    <path
       style="fill:#ff0000;fill-opacity:1;fill-rule:evenodd;stroke:#000000;stroke-width:0.03431883;stroke-opacity:1"
       d="m 9.6740506,81.822466 c -0.036986,0.0045 -0.4409934,0.02343 -0.096263,0.05519 l -6.0530319,7.713895 0,-3.809458 c 0,-0.08074 -0.065581,-0.14632 -0.1463201,-0.14632 l -2.5914062,0 c -0.0807391,0 -0.14632011,0.06558 -0.14632011,0.14632 l 0,14.218727 c 0,0.0807 0.065581,0.14504 0.14632011,0.14504 l 2.5914062,0 c 0.080739,0 0.1463201,-0.0643 0.1463201,-0.14504 l 0,-5.739861 1.4426649,-1.839269 4.9697497,7.74471 3.4256877,0 -6.5112451,-10.144873 4.9941361,-6.364926 c 0.04984,-0.06352 0.03913,-0.154239 -0.02439,-0.204078 L 9.7818654,81.853271 c -0.031759,-0.02492 -0.070829,-0.03527 -0.1078148,-0.03081 z"
       id="KEN_K"
       inkscape:connector-curvature="0">
      <desc
         id="desc3035">The letter K</desc>
      <title
         id="title3033">K</title>
    </path>
    <path
       style="fill:#ff0000;fill-opacity:1;fill-rule:evenodd;stroke:#000000;stroke-width:0.03431883;stroke-opacity:1"
       d="m 14.722643,85.592139 c -0.08074,0 -0.14632,0.06558 -0.14632,0.14632 l 0,2.591407 0,1.816166 0,2.591406 0,4.670694 0,2.549052 0,0.04236 c 0,0.08074 0.06558,0.146316 0.14632,0.146316 l 10.644147,0 0,-2.884047 -7.90642,0 0,-4.378052 5.132755,0 0,-2.882763 -5.132755,0 0,-1.526093 6.961756,0 0,-2.882763 -9.699483,0 z"
       id="KEN_E"
       inkscape:connector-curvature="0">
      <desc
         id="desc3039">The letter E</desc>
      <title
         id="title3037">E</title>
    </path>
    <path
       style="fill:#ff0000;fill-opacity:1;fill-rule:evenodd;stroke:#000000;stroke-width:0.04069024;stroke-opacity:1"
       d="m 27.315716,85.612672 c -0.121449,0 -0.21948,0.09803 -0.21948,0.219481 l 0,14.07369 c 0,0.121467 0.09803,0.219487 0.21948,0.219487 l 2.430967,0 c 0.121449,0 0.21948,-0.098 0.21948,-0.219487 l 0,-8.776646 5.323999,8.387745 0,0.409437 c 0,0.121451 0.09803,0.219481 0.21948,0.219481 l 0.179691,0 1.554331,0 0.696945,0 c 0.121449,0 0.219481,-0.098 0.219481,-0.219481 l 0,-14.07369 c 0,-0.121447 -0.09803,-0.21948 -0.219481,-0.21948 l -2.430967,0 c -0.121449,0 -0.21948,0.09803 -0.21948,0.21948 l 0,8.308158 -5.33555,-8.405705 c -0.0012,-0.0018 -0.0026,-0.0033 -0.0038,-0.0051 -0.03228,-0.08072 -0.111561,-0.137336 -0.204078,-0.137336 l -2.430968,0 z"
       id="KEN_N"
       inkscape:connector-curvature="0">
      <desc
         id="desc3043">The letter N</desc>
      <title
         id="title3041">N</title>
    </path>
    <path
       style="fill:#ff0000;fill-opacity:1;fill-rule:evenodd;stroke:#000000;stroke-width:0.03424316;stroke-opacity:1"
       d="m 54.468385,85.584464 c -0.110608,0.01111 -0.196387,0.104658 -0.196387,0.218197 l 0,7.097808 0.009,0.0051 c -0.0076,2.3991 -1.986154,4.33698 -4.387036,4.33698 -0.06093,0 -0.121944,-0.0026 -0.182258,-0.0051 l 0,2.905871 c 0.06056,10e-4 0.121327,0.003 0.182258,0.003 3.98652,0 7.221683,-3.213523 7.258237,-7.191504 l 0.0039,0 0,-7.151716 c 0,-0.121108 -0.09709,-0.218197 -0.218196,-0.218197 l -2.44637,0 c -0.0076,0 -0.01581,-8.21e-4 -0.0231,0 z"
       id="JINKS_J"
       inkscape:connector-curvature="0">
      <desc
         id="desc3047">The letter J</desc>
      <title
         id="title3045">J</title>
    </path>
    <rect
       style="fill:#ff0000;fill-opacity:1;fill-rule:evenodd;stroke:#000000;stroke-width:0.03580264;stroke-opacity:1"
       id="JINKS_I"
       width="2.8793392"
       height="14.512224"
       x="59.467228"
       y="85.633636"
       ry="0.1466291">
      <desc
         id="desc3059">The letter I</desc>
      <title
         id="title3057">I</title>
    </rect>
    <path
       style="fill:#ff0000;fill-opacity:1;fill-rule:evenodd;stroke:#000000;stroke-width:0.04069024;stroke-opacity:1"
       d="m 65.143756,85.612676 c -0.12143,0 -0.21947,0.09803 -0.21947,0.21948 l 0,14.073687 c 0,0.121467 0.09804,0.219487 0.21947,0.219487 l 2.430968,0 c 0.12145,0 0.21949,-0.098 0.21949,-0.219487 l 0,-8.776642 5.323998,8.387741 0,0.409437 c 0,0.121451 0.09804,0.219481 0.21947,0.219481 l 0.179692,0 1.55434,0 0.696936,0 c 0.121451,0 0.21949,-0.098 0.21949,-0.219481 l 0,-14.073687 c 0,-0.121449 -0.09804,-0.21948 -0.21949,-0.21948 l -2.430968,0 c -0.12143,0 -0.21947,0.09803 -0.21947,0.21948 l 0,8.308159 -5.33556,-8.405706 c -0.0021,-0.0018 -0.0027,-0.0033 -0.0039,-0.0051 -0.03226,-0.08072 -0.111552,-0.137335 -0.204067,-0.137335 l -2.430968,0 z"
       id="JINKS_N"
       inkscape:connector-curvature="0">
      <desc
         id="desc3063">The letter N</desc>
      <title
         id="title3061">N</title>
    </path>
    <path
       style="fill:#ff0000;fill-opacity:1;fill-rule:evenodd;stroke:#000000;stroke-width:0.03431883;stroke-opacity:1"
       d="m 87.560603,81.801939 c -0.03701,0.0045 -0.07136,0.02343 -0.09625,0.05519 l -6.053032,7.713894 0,-3.809457 c 0,-0.08074 -0.06559,-0.14632 -0.14632,-0.14632 l -2.591417,0 c -0.08073,0 -0.14632,0.06558 -0.14632,0.14632 l 0,14.21872 c 0,0.08074 0.06559,0.145044 0.14632,0.145044 l 2.591417,0 c 0.08073,0 0.14632,-0.0643 0.14632,-0.145044 l 0,-5.739855 1.442665,-1.839269 4.96975,7.744698 3.425677,0 -6.511235,-10.144861 4.994126,-6.364925 c 0.04984,-0.06352 0.03914,-0.154239 -0.02438,-0.204078 l -2.039507,-1.599253 c -0.03175,-0.02492 -0.07083,-0.03527 -0.107815,-0.03081 z"
       id="JINKS_K"
       inkscape:connector-curvature="0">
      <desc
         id="desc3067">The letter K</desc>
      <title
         id="title3065">K</title>
    </path>
    <path
       style="fill:#ff0000;fill-opacity:1;fill-rule:evenodd;stroke:#000000;stroke-width:0.04107414;stroke-opacity:1"
       d="m 95.528015,85.592144 c -1.998024,0 -3.546327,1.65355 -3.546327,3.651585 0,1.974083 1.581366,3.58643 3.546327,3.624631 1.193151,0 2.160157,0.968272 2.160157,2.161431 0,1.193159 -0.967006,2.160148 -2.160157,2.160148 -1.136964,0 -2.067251,-0.878154 -2.152435,-1.993292 l -2.921269,0 c 0.07679,2.745827 2.319662,4.949213 5.073704,4.949213 2.802549,0 5.074995,-2.281124 5.074995,-5.09425 0,-2.813124 -2.272446,-5.092966 -5.074995,-5.092966 l 0,0.0012 c -0.392179,0 -0.70977,-0.317649 -0.70977,-0.709781 0,-0.392132 0.317591,-0.747003 0.70977,-0.747003 0.71665,0.0018 1.446279,0.0018 2.176833,0.0012 l 0,-2.902016 c -0.744374,-0.0038 -1.485627,-0.0078 -2.176833,-0.01027 z"
       id="JINKS_S"
       inkscape:connector-curvature="0">
      <desc
         id="desc3071">The letter S</desc>
      <title
         id="title3069">S</title>
    </path>
  </g>
  </g>
</svg>
